<svg width="149" height="161" viewBox="0 0 149 161" fill="none" xmlns="http://www.w3.org/2000/svg">
<g clip-path="url(#clip0_11_181)">
<path d="M107.874 28.4999C108.82 27.8477 109.014 26.6311 108.307 25.7827C107.599 24.9343 106.259 24.7753 105.313 25.4276L107.874 28.4999ZM93.191 108.445L93.2916 110.379L93.191 108.445ZM18.4881 118.343L41.7892 110.632L23.0396 96.2977L18.4881 118.343ZM105.313 25.4276C81.2329 42.0251 65.5059 63.4428 61.9974 80.6667C60.2397 89.2961 61.5067 97.1623 66.7782 102.711C72.0667 108.278 80.9503 111.057 93.2916 110.379L93.0905 106.511C81.5104 107.147 74.1585 104.499 70.0372 100.161C65.8988 95.8044 64.5814 89.2879 66.2044 81.3198C69.4576 65.3487 84.3531 44.7122 107.874 28.4999L105.313 25.4276ZM93.2916 110.379C105.439 109.712 112.916 103.912 115.578 96.5996C118.191 89.4194 116.034 81.077 109.695 75.4845C103.275 69.8216 92.8198 67.1622 79.2108 70.8015C65.671 74.4224 48.9393 84.2722 29.4378 103.671L32.5833 106.258C51.8027 87.1407 67.8873 77.8555 80.3707 74.5171C92.7849 71.1973 101.56 73.7544 106.688 78.2787C111.897 82.8734 113.607 89.6886 111.516 95.4314C109.474 101.042 103.676 105.93 93.0905 106.511L93.2916 110.379Z" fill="#175CE1"/>
</g>
<defs>
<clipPath id="clip0_11_181">
<rect width="90.4708" height="132.61" fill="white" transform="translate(75.7773 160.497) rotate(-146.887)"/>
</clipPath>
</defs>
</svg>
