<svg width="24" height="24" viewBox="0 0 24 24" fill="none" xmlns="http://www.w3.org/2000/svg">
<path d="M10.001 15.5C9.59098 15.5 9.25098 15.84 9.25098 16.25V17.75C9.25098 18.16 9.59098 18.5 10.001 18.5C10.411 18.5 10.751 18.16 10.751 17.75V16.25C10.751 15.84 10.411 15.5 10.001 15.5Z" fill="white"/>
<path d="M22.001 21.249H21.001V9.97899C21.001 9.35899 20.721 8.77899 20.231 8.39899L13.231 2.95899C12.511 2.38899 11.491 2.38899 10.771 2.95899L3.77098 8.39899C3.28098 8.77899 3.00098 9.35899 3.00098 9.96899L2.95098 21.249H2.00098C1.80206 21.249 1.6113 21.328 1.47065 21.4687C1.32999 21.6093 1.25098 21.8001 1.25098 21.999C1.25098 22.1979 1.32999 22.3887 1.47065 22.5293C1.6113 22.67 1.80206 22.749 2.00098 22.749H22.001C22.1999 22.749 22.3907 22.67 22.5313 22.5293C22.672 22.3887 22.751 22.1979 22.751 21.999C22.751 21.8001 22.672 21.6093 22.5313 21.4687C22.3907 21.328 22.1999 21.249 22.001 21.249ZM10.501 6.74899H13.501C13.911 6.74899 14.251 7.08899 14.251 7.49899C14.251 7.90899 13.911 8.24899 13.501 8.24899H10.501C10.091 8.24899 9.75098 7.90899 9.75098 7.49899C9.75098 7.08899 10.091 6.74899 10.501 6.74899ZM17.001 21.249H7.00098V12.499C7.00098 11.669 7.67098 10.999 8.50098 10.999H15.501C16.331 10.999 17.001 11.669 17.001 12.499V21.249Z" fill="white"/>
</svg>
